# xmcd
#
# Track frame offsets: 
#        150
#        16706
#        36532
#        59860
#        83603
#        102739
#        125495
#        142752
#        159211
#        182424
#
# Disc length: 2684 seconds
#
# Revision: 1
# Processed by: cddbd v1.5.2PL0 Copyright (c) Steve Scherf et al.
# Submitted via: ExactAudioCopy v0.99pb5
#
DISCID=7d0a7a0a
DTITLE=The Soultwisters - Soup Is Hot
DYEAR=2009
DGENRE=Jazz
TTITLE0=Soulpudding
TTITLE1=The Floor
TTITLE2=Soup Is Hot
TTITLE3=Clyde
TTITLE4=Tequila Afternoon
TTITLE5=Blue Dream
TTITLE6=Spreader
TTITLE7=Waltz For King
TTITLE8=Baker's Song
TTITLE9=Put The Kettle On The Fire
EXTD=
EXTT0=
EXTT1=
EXTT2=
EXTT3=
EXTT4=
EXTT5=
EXTT6=
EXTT7=
EXTT8=
EXTT9=
PLAYORDER=
